# xmcd
#
# Track frame offsets:
#	150
#	19634
#	35266
#	49923
#	61948
#	79736
#	96819
#	112644
#	125970
#	138924
#	153562
#	168512
#	181130
#	197663
#	207586
#	219456
#
# Disc length: 3176 seconds
#
# Revision: 1
# Processed by: cddbd v1.4PL0 Copyright (c) Steve Scherf et al.
# Submitted via: audiograbber 1.81.02
#
DISCID=da0c6610
DTITLE=3D Country - 2001 3D Productions Presents
DYEAR=1900
DGENRE=
TTITLE0=Rock This Country
TTITLE1=I Cross My Heart
TTITLE2=I Will Be Ther For You
TTITLE3=Some Broken Hearts Never Mend
TTITLE4=I Could Not Ask For More
TTITLE5=For The Good Times
TTITLE6=Honey I'm Home
TTITLE7=On The Other Hand
TTITLE8=Let 'Er Rip
TTITLE9=Could I Have This Dance
TTITLE10=But I Do Love You
TTITLE11=Cover Of The Rolling Stone
TTITLE12=Wide Open Spaces
TTITLE13=Today I Started Loving You Again
TTITLE14=Sing Again
TTITLE15=I Hope You Dance
EXTD=
EXTT0=
EXTT1=
EXTT2=
EXTT3=
EXTT4=
EXTT5=
EXTT6=
EXTT7=
EXTT8=
EXTT9=
EXTT10=
EXTT11=
EXTT12=
EXTT13=
EXTT14=
EXTT15=
PLAYORDER=
